<?xml version="1.0" encoding="utf-8"?>
<!-- Svg Vector Icons : http://www.onlinewebfonts.com/icon -->
<!DOCTYPE svg PUBLIC "-//W3C//DTD SVG 1.1//EN" "http://www.w3.org/Graphics/SVG/1.1/DTD/svg11.dtd">
<svg version="1.1" xmlns="http://www.w3.org/2000/svg" xmlns:xlink="http://www.w3.org/1999/xlink" x="0px" y="0px" viewBox="0 0 256 256" enable-background="new 0 0 256 256" xml:space="preserve">
<metadata> Svg Vector Icons : http://www.onlinewebfonts.com/icon </metadata>
<g><g><path fill="#000000" d="M149.8,200.2l-4.9-5.1c24.2-23.3,64.7-67,64.7-98.6c0-45.7-37.2-83-83-83c-45.7,0-83,37.2-83,83c0,31.5,40.5,75.3,64.7,98.6l-4.9,5.1C73,170.8,36.6,129,36.6,96.5c0-49.6,40.4-90,90-90c49.7,0,90.1,40.4,90.1,90C216.7,129,180.3,170.8,149.8,200.2L149.8,200.2z M126.6,126C109.8,126,96,112.3,96,95.4s13.7-30.6,30.6-30.6c16.9,0,30.6,13.7,30.6,30.6C157.3,112.3,143.5,126,126.6,126L126.6,126z M126.6,71.9c-13,0-23.6,10.6-23.6,23.6c0,13,10.6,23.6,23.6,23.6s23.6-10.6,23.6-23.6C150.2,82.4,139.6,71.9,126.6,71.9L126.6,71.9z M126.6,126C109.8,126,96,112.3,96,95.4s13.7-30.6,30.6-30.6c16.9,0,30.6,13.7,30.6,30.6C157.3,112.3,143.5,126,126.6,126L126.6,126z M126.6,71.9c-13,0-23.6,10.6-23.6,23.6c0,13,10.6,23.6,23.6,23.6s23.6-10.6,23.6-23.6C150.2,82.4,139.6,71.9,126.6,71.9L126.6,71.9z M246,249.5H10l53.6-55.4h43.7l1,1c8.2,7.9,14.9,13.8,18.2,16.7c3.3-2.9,10.1-8.8,18.3-16.7l1-1h46.4L246,249.5L246,249.5z M26.7,242.4h202.6l-40-41.3h-40.6c-11.4,10.9-19.8,17.9-19.9,18l-2.3,1.9l-2.3-1.9c-0.1-0.1-8.5-7.1-19.9-18H66.6L26.7,242.4L26.7,242.4z M126.6,221.1l-2.3-1.9c-0.1-0.1-9-7.5-20.9-19l4.9-5.1c8.2,7.9,14.9,13.8,18.2,16.7c3.3-2.9,10.1-8.8,18.3-16.7l4.9,5.1c-11.9,11.5-20.8,18.9-20.9,19L126.6,221.1L126.6,221.1z"/></g></g>
</svg>